<?xml version="1.0" encoding="UTF-8" standalone="no"?>
<svg
   xmlns:dc="http://purl.org/dc/elements/1.1/"
   xmlns:cc="http://creativecommons.org/ns#"
   xmlns:rdf="http://www.w3.org/1999/02/22-rdf-syntax-ns#"
   xmlns:svg="http://www.w3.org/2000/svg"
   xmlns="http://www.w3.org/2000/svg"
   xmlns:sodipodi="http://sodipodi.sourceforge.net/DTD/sodipodi-0.dtd"
   xmlns:inkscape="http://www.inkscape.org/namespaces/inkscape"
   enable-background="new 0 0 141.732 141.732"
   height="139.356"
   id="Livello_1"
   version="1.1"
   viewBox="0 0 75.119006 139.35601"
   width="75.119003"
   xml:space="preserve"
   sodipodi:docname="mobile.svg"
   inkscape:export-filename="/home/ivan/Projects/portfolio/public/img/mobile.svg.png"
   inkscape:export-xdpi="96"
   inkscape:export-ydpi="96"
   inkscape:version="0.92.3 (2405546, 2018-03-11)"><metadata
     id="metadata11"><rdf:RDF><cc:Work
         rdf:about=""><dc:format>image/svg+xml</dc:format><dc:type
           rdf:resource="http://purl.org/dc/dcmitype/StillImage" /><dc:title></dc:title></cc:Work></rdf:RDF></metadata><defs
     id="defs9" /><sodipodi:namedview
     pagecolor="#ffffff"
     bordercolor="#666666"
     borderopacity="1"
     objecttolerance="10"
     gridtolerance="10"
     guidetolerance="10"
     inkscape:pageopacity="0"
     inkscape:pageshadow="2"
     inkscape:window-width="852"
     inkscape:window-height="480"
     id="namedview7"
     showgrid="false"
     fit-margin-top="0"
     fit-margin-left="0"
     fit-margin-right="0"
     fit-margin-bottom="0"
     inkscape:zoom="1.6651145"
     inkscape:cx="33.307997"
     inkscape:cy="68.490003"
     inkscape:window-x="0"
     inkscape:window-y="0"
     inkscape:window-maximized="0"
     inkscape:current-layer="Livello_1" /><g
     id="Livello_12"
     transform="translate(-37.558)"><path
       d="M 108.225,118.226 H 42.005 V 10.889 h 66.22 z m -38.263,10.899 c 0,-2.951 2.37,-5.345 5.294,-5.345 2.925,0 5.294,2.394 5.294,5.345 0,2.95 -2.369,5.348 -5.294,5.348 -2.924,-0.004 -5.294,-2.398 -5.294,-5.348 m 42.706,4.851 h 0.009 V 5.341 5.34 5.314 h -0.002 C 112.661,2.377 110.278,0 107.336,0 c -0.021,0 -0.038,0.002 -0.057,0.002 V 0 h -11.997 -35 -17.388 c -2.938,0.002 -5.319,2.379 -5.335,5.314 h -10e-4 v 128.661 h 0.008 c -0.002,0.056 -0.008,0.111 -0.008,0.169 0,2.878 2.419,5.212 5.404,5.212 0.044,0 0.087,-0.006 0.131,-0.007 v 0.007 h 64.316 v 0 c 2.904,0 5.267,-2.333 5.267,-5.212 0.001,-0.057 -0.006,-0.113 -0.008,-0.168"
       id="path2"
       inkscape:connector-curvature="0" /></g><g
     id="Livello_1_1_"
     transform="translate(-37.558)" /></svg>