<?xml version="1.0" encoding="UTF-8" standalone="no"?>
<svg
   xmlns:dc="http://purl.org/dc/elements/1.1/"
   xmlns:cc="http://creativecommons.org/ns#"
   xmlns:rdf="http://www.w3.org/1999/02/22-rdf-syntax-ns#"
   xmlns:svg="http://www.w3.org/2000/svg"
   xmlns="http://www.w3.org/2000/svg"
   xmlns:sodipodi="http://sodipodi.sourceforge.net/DTD/sodipodi-0.dtd"
   xmlns:inkscape="http://www.inkscape.org/namespaces/inkscape"
   xml:space="preserve"
   width="140.37601"
   viewBox="0 0 140.37601 114.492"
   version="1.1"
   id="Livello_1"
   height="114.492"
   enable-background="new 0 0 141.732 141.732"
   sodipodi:docname="desktop.svg"
   inkscape:version="0.92.3 (2405546, 2018-03-11)"><sodipodi:namedview
     pagecolor="#ffffff"
     bordercolor="#666666"
     borderopacity="1"
     objecttolerance="10"
     gridtolerance="10"
     guidetolerance="10"
     inkscape:pageopacity="0"
     inkscape:pageshadow="2"
     inkscape:window-width="1366"
     inkscape:window-height="739"
     id="namedview8"
     showgrid="false"
     fit-margin-top="0"
     fit-margin-left="0"
     fit-margin-right="0"
     fit-margin-bottom="0"
     inkscape:zoom="1.6651145"
     inkscape:cx="70.187997"
     inkscape:cy="43.626003"
     inkscape:window-x="0"
     inkscape:window-y="0"
     inkscape:window-maximized="1"
     inkscape:current-layer="Livello_1" /><metadata
     id="metadata11"><rdf:RDF><cc:Work
         rdf:about=""><dc:format>image/svg+xml</dc:format><dc:type
           rdf:resource="http://purl.org/dc/dcmitype/StillImage" /><dc:title></dc:title></cc:Work></rdf:RDF></metadata><defs
     id="defs9" /><g
     id="Livello_10"
     transform="translate(-0.678)"><path
       id="path2"
       d="M 135.657,88.47 H 6.078 V 5.204 h 129.58 z m 5.397,2.602 v 0 V 2.604 C 141.054,1.166 139.845,0 138.357,0 H 3.378 c -1.491,0.001 -2.7,1.166 -2.7,2.604 v 88.469 c 0,1.438 1.209,2.604 2.7,2.604 h 51.291 v 15.609 H 33.073 c -1.491,0 -2.7,1.165 -2.7,2.604 0,1.437 1.209,2.602 2.7,2.602 h 10e-4 75.585 c 1.49,0 2.699,-1.165 2.699,-2.602 0,-1.438 -1.209,-2.604 -2.699,-2.604 H 87.064 V 93.674 h 51.291 c 1.49,0 2.699,-1.163 2.699,-2.602"
       inkscape:connector-curvature="0" /></g><g
     id="Livello_1_1_"
     transform="translate(-0.678)" /></svg>